<?xml version="1.0" standalone="no"?>
<!DOCTYPE svg PUBLIC "-//W3C//DTD SVG 20010904//EN"
 "http://www.w3.org/TR/2001/REC-SVG-20010904/DTD/svg10.dtd">
<svg version="1.0" xmlns="http://www.w3.org/2000/svg"
 width="345.000000pt" height="422.000000pt" viewBox="0 0 345.000000 422.000000"
 preserveAspectRatio="xMidYMid meet">

<g transform="translate(0.000000,422.000000) scale(0.100000,-0.100000)"
fill="#000000" stroke="none">
<path d="M2550 3481 l0 -49 -55 1 c-59 1 -101 -20 -120 -61 -11 -24 -25 -29
-25 -9 0 22 -46 58 -87 68 -59 14 -123 1 -155 -32 -16 -15 -28 -35 -28 -45 0
-15 9 -16 75 -12 59 4 75 2 75 -9 0 -9 -15 -13 -52 -13 -35 0 -64 -7 -86 -20
-21 -13 -50 -20 -82 -20 -28 0 -59 -5 -69 -12 -15 -9 -23 -9 -35 1 -36 30 -5
77 35 53 22 -14 139 -16 139 -3 0 22 -44 83 -69 95 -64 32 -148 27 -203 -14
l-28 -21 0 26 c0 22 -4 25 -33 25 -18 0 -42 -7 -53 -15 -25 -19 -34 -19 -34 0
0 11 -12 15 -50 15 l-50 0 0 -42 0 -43 -30 37 c-64 78 -209 69 -260 -15 l-20
-32 0 88 0 87 -59 0 -60 0 -46 -60 c-25 -33 -48 -60 -50 -60 -2 0 -25 27 -51
60 l-47 60 -58 0 -59 0 0 -175 0 -176 68 3 67 3 0 58 c0 63 6 70 31 32 25 -38
76 -35 103 8 l21 32 0 -68 0 -68 68 3 67 3 5 45 c5 44 5 44 17 17 20 -43 69
-67 136 -67 63 0 88 9 130 48 l27 26 0 -37 0 -37 65 0 65 0 0 56 c0 67 13 94
44 94 19 0 24 -7 30 -38 7 -48 56 -99 102 -108 64 -12 132 1 163 30 31 29 41
32 41 12 0 -41 102 -61 160 -31 25 13 29 13 34 0 4 -10 20 -15 51 -15 l45 0 0
38 0 37 23 -27 c12 -14 32 -31 44 -37 28 -14 98 -14 125 0 14 8 23 8 31 0 6
-6 30 -11 54 -11 l43 0 0 41 0 41 29 -31 c37 -39 69 -51 137 -51 98 0 154 51
154 141 0 81 -62 132 -160 132 -63 0 -108 -20 -139 -60 l-20 -28 -1 93 0 92
-65 0 -65 0 0 -49z m-1112 -148 c2 -9 -7 -13 -27 -13 -30 0 -39 9 -24 24 11
10 46 3 51 -11z m1110 -29 c2 -11 -4 -26 -12 -33 -31 -26 -71 14 -45 45 17 21
53 14 57 -12z m326 4 c15 -24 -13 -53 -43 -43 -21 6 -29 43 -14 59 12 12 45 2
57 -16z m-1314 -47 c0 -5 -37 -11 -82 -14 -63 -3 -87 -1 -98 9 -12 12 0 14 83
14 53 0 97 -4 97 -9z m674 0 c3 -5 -1 -14 -9 -21 -12 -10 -18 -10 -30 0 -18
15 -11 30 15 30 10 0 21 -4 24 -9z"/>
<path d="M226 3319 c-44 -52 -31 -129 27 -161 13 -8 80 -15 166 -18 l145 -5
57 -335 c63 -370 94 -549 139 -808 l30 -174 -125 -231 c-69 -127 -128 -241
-131 -253 -3 -11 1 -38 10 -58 28 -68 1 -66 806 -66 794 0 763 -2 796 62 21
40 6 97 -33 127 -25 21 -35 21 -660 21 -349 0 -633 3 -631 8 2 4 34 64 71 134
l69 128 755 0 c677 0 759 2 789 16 19 9 39 25 45 35 5 10 108 294 229 630 139
384 220 624 220 648 0 29 -7 44 -31 67 l-30 29 -1078 3 -1078 2 -13 78 c-15
87 -31 127 -59 142 -12 6 -108 10 -239 10 l-220 0 -26 -31z m1343 -303 c25
-22 27 -53 6 -82 -13 -19 -12 -23 15 -42 l29 -21 34 34 c31 31 41 35 87 35 44
0 56 -4 81 -29 53 -54 34 -152 -37 -186 -52 -25 -111 -15 -146 24 l-26 29 -22
-23 c-13 -13 -35 -27 -51 -30 -16 -4 -29 -11 -29 -16 0 -9 17 -47 25 -57 1 -1
14 2 28 7 21 8 28 7 36 -7 8 -14 12 -15 22 -4 19 18 76 15 87 -4 9 -16 11 -16
33 0 14 9 43 16 70 16 40 0 51 -4 73 -31 l26 -30 22 26 c53 61 187 40 188 -29
1 -19 2 -18 16 6 38 71 155 82 205 20 28 -36 23 -111 -11 -147 -49 -52 -136
-57 -180 -10 l-23 24 -29 -24 c-16 -14 -35 -25 -41 -25 -7 0 -18 -4 -26 -9
-11 -7 -9 -13 8 -30 38 -38 -6 -80 -59 -58 l-25 11 28 4 c29 4 39 32 11 32
-11 0 -15 6 -11 20 4 15 -2 24 -22 35 -15 7 -33 21 -41 30 -12 14 -16 13 -40
-10 -57 -55 -157 -38 -186 31 -9 20 -13 46 -10 58 3 15 -3 27 -21 40 -25 19
-26 19 -39 1 -18 -25 -18 -96 1 -121 23 -31 19 -34 -50 -34 -50 0 -65 3 -65
14 0 8 5 18 10 21 6 3 10 34 10 67 l0 61 -20 -26 c-22 -28 -74 -47 -127 -47
-37 0 -43 -20 -18 -54 8 -11 15 -23 15 -28 0 -9 -144 -11 -153 -2 -3 4 3 18
13 32 17 21 20 40 20 122 0 83 -3 101 -21 124 -24 31 -19 34 56 38 l50 3 3
111 c2 90 0 113 -13 124 -8 7 -15 19 -15 27 0 12 19 14 114 11 95 -2 117 -6
135 -22z m371 -92 c0 -14 2 -14 22 0 28 20 92 21 108 1 11 -13 15 -13 33 0 12
8 40 15 63 15 59 0 77 -24 82 -108 2 -37 8 -71 13 -76 24 -26 8 -36 -56 -36
-64 0 -75 6 -54 27 5 5 9 38 7 74 -3 61 -4 64 -28 64 -23 0 -25 -4 -28 -59 -2
-32 2 -64 7 -69 27 -27 11 -37 -54 -37 -36 0 -65 2 -65 4 0 2 7 17 15 32 16
32 18 55 9 103 -7 33 -30 41 -52 19 -14 -14 -16 -114 -2 -123 6 -3 10 -13 10
-21 0 -11 -14 -14 -59 -14 -63 0 -81 10 -56 30 17 14 21 125 5 135 -18 11 -11
35 13 45 36 14 67 12 67 -6z m580 -646 c0 -2 -13 -39 -29 -83 l-29 -80 -738
-3 c-406 -1 -741 1 -745 5 -4 5 -10 43 -14 86 l-7 77 781 0 c430 0 781 -1 781
-2z m-90 -236 c0 -4 -9 -36 -21 -70 l-21 -62 -694 0 c-547 0 -695 3 -698 13
-3 6 -7 38 -9 70 l-6 57 725 0 c398 0 724 -4 724 -8z"/>
<path d="M1440 2966 c0 -32 3 -36 25 -36 47 0 44 61 -4 68 -18 3 -21 -1 -21
-32z"/>
<path d="M1700 2889 c-25 -46 17 -150 55 -136 36 14 3 157 -36 157 -5 0 -13
-9 -19 -21z"/>
<path d="M1446 2883 c-3 -4 -6 -30 -6 -58 0 -63 17 -84 55 -67 34 16 43 57 18
89 -19 27 -56 46 -67 36z"/>
<path d="M1349 2716 c-2 -2 -3 -36 -1 -75 4 -70 4 -71 31 -71 35 0 61 28 61
64 0 29 -16 66 -34 78 -12 8 -50 11 -57 4z"/>
<path d="M1776 2614 c-25 -25 -19 -34 24 -34 22 0 40 4 40 9 0 12 -29 41 -40
41 -5 0 -16 -7 -24 -16z"/>
<path d="M1992 2618 c-21 -21 -14 -77 13 -103 28 -29 56 -32 90 -9 36 24 33
52 -4 46 -26 -4 -32 0 -48 34 -20 42 -33 50 -51 32z"/>
<path d="M2210 2615 c-28 -34 7 -145 46 -145 31 0 29 94 -2 138 -18 26 -27 27
-44 7z"/>
<path d="M1828 2542 c-32 -2 -58 -7 -58 -12 0 -13 42 -40 62 -40 27 0 68 22
68 36 0 18 -7 19 -72 16z"/>
<path d="M1075 1144 c-72 -37 -108 -93 -108 -169 -1 -66 31 -127 85 -162 59
-40 147 -40 206 0 85 56 111 181 55 261 -55 78 -162 110 -238 70z"/>
<path d="M1892 1139 c-25 -12 -55 -39 -70 -62 -23 -34 -27 -52 -27 -108 0 -60
3 -71 31 -106 36 -45 105 -83 151 -83 72 0 142 46 174 115 25 54 24 102 -3
155 -51 99 -161 138 -256 89z"/>
</g>
</svg>
